<svg xmlns="http://www.w3.org/2000/svg" width="27" height="27" viewBox="0 0 27 27"><g><g><path d="M26.23 21.148c-1.034-1.034-3.516-2.588-4.74-3.172-1.42-.682-1.94-.668-2.946.057-.836.604-1.378 1.167-2.341.956-.963-.204-2.862-1.645-4.704-3.48-1.842-1.843-3.276-3.741-3.48-4.704-.204-.97.358-1.505.956-2.342.724-1.005.745-1.526.056-2.946-.583-1.23-2.13-3.705-3.171-4.739C4.826-.256 4.594-.031 4.025.173c0 0-.844.338-1.68.893-1.034.69-1.61 1.266-2.019 2.13-.4.866-.864 2.476 1.498 6.68 1.906 3.397 3.776 5.97 6.553 8.74l.007.007.007.007c2.778 2.778 5.344 4.648 8.74 6.553 4.205 2.363 5.815 1.899 6.68 1.498.865-.4 1.441-.977 2.13-2.018.556-.837.893-1.68.893-1.68.204-.57.436-.802-.604-1.835z"/></g></g></svg>