<svg xmlns="http://www.w3.org/2000/svg" width="90" height="90" viewBox="0 0 90 90"><g><g><g><g><path fill="none" stroke="#000" stroke-linecap="round" stroke-linejoin="round" stroke-miterlimit="20" stroke-width="3" d="M72.16 76.883v0-6.974c0-7.703-6.244-13.948-13.948-13.948H30.316c-7.703 0-13.948 6.245-13.948 13.948v6.974"/></g><g><path fill="none" stroke="#000" stroke-linecap="round" stroke-linejoin="round" stroke-miterlimit="20" stroke-width="3" d="M58.212 33.065c0 7.703-6.244 13.948-13.948 13.948-7.703 0-13.948-6.245-13.948-13.948 0-7.704 6.245-13.948 13.948-13.948 7.704 0 13.948 6.244 13.948 13.948z"/></g></g><g><g><path fill="none" stroke="#000" stroke-linecap="round" stroke-linejoin="round" stroke-miterlimit="20" stroke-width="3" d="M87.44 45c0 23.593-19.127 42.72-42.72 42.72C21.126 87.72 2 68.593 2 45S21.126 2.28 44.72 2.28c23.593 0 42.72 19.127 42.72 42.72z"/></g></g></g></g></svg>