<svg id="surface1" xmlns="http://www.w3.org/2000/svg" width="87.085" height="84.276" viewBox="0 0 87.085 84.276">
  <path id="Path_26" data-name="Path 26" d="M7.023,75.974h36.52v-2.81H7.023A4.214,4.214,0,0,1,2.809,68.95V7.148A4.213,4.213,0,0,1,7.023,2.934h61.8a4.213,4.213,0,0,1,4.214,4.214V39.453h2.81V7.148A7.031,7.031,0,0,0,68.825.125H7.023A7.032,7.032,0,0,0,0,7.148v61.8A7.033,7.033,0,0,0,7.023,75.974Zm0,0" transform="translate(0 -0.125)" fill="#7e71b1"/>
  <path id="Path_27" data-name="Path 27" d="M62.344,62.469h2.809v2.809H62.344Zm0,0" transform="translate(-56.725 -56.85)" fill="#7e71b1"/>
  <path id="Path_28" data-name="Path 28" d="M124.676,62.469h2.81v2.809h-2.81Zm0,0" transform="translate(-113.439 -56.85)" fill="#7e71b1"/>
  <path id="Path_29" data-name="Path 29" d="M187.016,62.469h2.809v2.809h-2.809Zm0,0" transform="translate(-170.161 -56.85)" fill="#7e71b1"/>
  <path id="Path_30" data-name="Path 30" d="M62.344,124.8h64.611v2.81H62.344Zm0,0" transform="translate(-56.725 -113.564)" fill="#7e71b1"/>
  <path id="Path_31" data-name="Path 31" d="M76.373,191.707l-3.568,3.568a7.045,7.045,0,1,0,1.986,1.986l3.567-3.568Zm-7.435,13.634a4.213,4.213,0,1,1,0-8.427,4.14,4.14,0,0,1,1.805.421l-2.8,2.8,1.986,1.986,2.8-2.8a4.136,4.136,0,0,1,.421,1.8A4.213,4.213,0,0,1,68.938,205.341Zm0,0" transform="translate(-56.297 -174.44)" fill="#7e71b1"/>
  <path id="Path_32" data-name="Path 32" d="M264.941,249.484h23.878v2.809H264.941Zm0,0" transform="translate(-241.063 -227.01)" fill="#7e71b1"/>
  <path id="Path_33" data-name="Path 33" d="M264.941,311.82h9.832v2.809h-9.832Zm0,0" transform="translate(-241.063 -283.728)" fill="#7e71b1"/>
  <path id="Path_34" data-name="Path 34" d="M405.2,311.82h19.664v2.809H405.2Zm0,0" transform="translate(-368.683 -283.728)" fill="#7e71b1"/>
  <path id="Path_35" data-name="Path 35" d="M561.047,249.484h14.046v2.809H561.047Zm0,0" transform="translate(-510.482 -227.01)" fill="#7e71b1"/>
  <path id="Path_36" data-name="Path 36" d="M76.373,378.723l-3.568,3.568a7.045,7.045,0,1,0,1.986,1.986l3.567-3.568Zm-7.435,13.635a4.214,4.214,0,0,1,0-8.428,4.145,4.145,0,0,1,1.805.421l-2.8,2.8,1.986,1.986,2.8-2.8a4.139,4.139,0,0,1,.421,1.8A4.214,4.214,0,0,1,68.938,392.357Zm0,0" transform="translate(-56.297 -344.601)" fill="#7e71b1"/>
  <path id="Path_37" data-name="Path 37" d="M264.941,436.492h23.878V439.3H264.941Zm0,0" transform="translate(-241.063 -397.164)" fill="#7e71b1"/>
  <path id="Path_38" data-name="Path 38" d="M264.941,498.836h9.832v2.809h-9.832Zm0,0" transform="translate(-241.063 -453.889)" fill="#7e71b1"/>
  <path id="Path_39" data-name="Path 39" d="M405.2,498.836h11.236v2.809H405.2Zm0,0" transform="translate(-368.683 -453.889)" fill="#7e71b1"/>
  <path id="Path_40" data-name="Path 40" d="M561.047,436.492h5.618V439.3h-5.618Zm0,0" transform="translate(-510.482 -397.164)" fill="#7e71b1"/>
  <path id="Path_41" data-name="Path 41" d="M76.373,565.738l-3.568,3.568a7.044,7.044,0,1,0,1.986,1.986l3.567-3.567Zm-7.435,13.635a4.214,4.214,0,0,1,0-8.428,4.133,4.133,0,0,1,1.805.421l-2.8,2.8,1.986,1.986,2.8-2.8a4.14,4.14,0,0,1,.421,1.8A4.214,4.214,0,0,1,68.938,579.373Zm0,0" transform="translate(-56.297 -514.761)" fill="#7e71b1"/>
  <path id="Path_42" data-name="Path 42" d="M264.941,623.512H283.2v2.81h-18.26Zm0,0" transform="translate(-241.063 -567.328)" fill="#7e71b1"/>
  <path id="Path_43" data-name="Path 43" d="M264.941,685.852h9.832v2.809h-9.832Zm0,0" transform="translate(-241.063 -624.05)" fill="#7e71b1"/>
  <path id="Path_44" data-name="Path 44" d="M405.2,685.852h5.618v2.809H405.2Zm0,0" transform="translate(-368.683 -624.05)" fill="#7e71b1"/>
  <path id="Path_45" data-name="Path 45" d="M519.78,509.8a21.069,21.069,0,1,0-21.069-21.069A21.069,21.069,0,0,0,519.78,509.8Zm0-39.329a18.26,18.26,0,1,1-18.26,18.26A18.26,18.26,0,0,1,519.78,470.473Zm0,0" transform="translate(-453.764 -425.526)" fill="#7e71b1"/>
  <path id="Path_46" data-name="Path 46" d="M612.034,592.926l-2.514,1.255,2.809,5.619a1.4,1.4,0,0,0,1.032.759,1.556,1.556,0,0,0,.218.018,1.407,1.407,0,0,0,.993-.411l16.854-16.855-1.986-1.986L613.964,596.8Zm0,0" transform="translate(-554.586 -528.942)" fill="#7e71b1"/>
</svg>
