<svg xmlns="http://www.w3.org/2000/svg" width="81.426" height="81.428" viewBox="0 0 81.426 81.428">
  <g id="Package" transform="translate(0)">
    <path id="Path_12" data-name="Path 12" d="M48.679,15.123l4.071,2.351a1.357,1.357,0,0,0,1.357,0l4.071-2.351a1.357,1.357,0,0,0,.679-1.175v-4.7a1.357,1.357,0,0,0-.679-1.175L54.107,5.718a1.357,1.357,0,0,0-1.357,0L48.679,8.066A1.357,1.357,0,0,0,48,9.241v4.7A1.357,1.357,0,0,0,48.679,15.123Zm2.036-5.1,2.714-1.566,2.714,1.566v3.135l-2.714,1.566-2.714-1.566Z" transform="translate(14.426 -0.737)" fill="#7e71b1"/>
    <path id="Path_13" data-name="Path 13" d="M82.07,61.714H77.307a11.655,11.655,0,0,0-.5-1.194l3.379-3.366a1.368,1.368,0,0,0,0-1.927l-3.841-3.841a1.372,1.372,0,0,0-1.059-.38V45.428H82.07a1.326,1.326,0,0,0,1.208-.746,1.357,1.357,0,0,0-.122-1.425L75.013,32.4a1.376,1.376,0,0,0-1.086-.543H65.147l3.664-6.324a4.283,4.283,0,0,1,3.013-2.009,10.721,10.721,0,0,0,7.6-5.537,10.957,10.957,0,0,0-3.936-14.4A10.845,10.845,0,0,0,59.65,16.548a4.164,4.164,0,0,1-.258,3.556L52.607,31.857H49.5V27.786a1.357,1.357,0,0,0-1.357-1.357H46.785V13.413l2.321-2.307a1.376,1.376,0,0,0,.2-1.656L45.238,2.665A1.344,1.344,0,0,0,44.07,2H41.356a1.344,1.344,0,0,0-1.167.665L36.118,9.451a1.376,1.376,0,0,0,.2,1.656l2.321,2.307V26.428H37.285a1.357,1.357,0,0,0-1.357,1.357v4.071H32.6L26.034,20.471a4.168,4.168,0,0,1-.258-3.556A10.857,10.857,0,0,0,14.7,2.394,1.364,1.364,0,0,0,13.63,4.429l3.936,6.813L16.114,14.16l-3.257-.2L8.934,7.144a1.349,1.349,0,0,0-1.126-.679,1.331,1.331,0,0,0-1.167.584,10.85,10.85,0,0,0,8.5,17.018,3.947,3.947,0,0,1,3.176,2.063l3.311,5.727H11.5a1.376,1.376,0,0,0-1.086.543L2.271,43.257a1.357,1.357,0,0,0-.122,1.425,1.326,1.326,0,0,0,1.208.746h6.786V76.642A1.357,1.357,0,0,0,11.5,78H53.055l2.171,2.185a1.368,1.368,0,0,0,1.927,0l3.366-3.379a11.654,11.654,0,0,0,1.194.5v4.764a1.357,1.357,0,0,0,1.357,1.357H68.5a1.357,1.357,0,0,0,1.357-1.357V77.307a11.655,11.655,0,0,0,1.194-.5l3.366,3.379a1.368,1.368,0,0,0,1.927,0l3.841-3.841a1.368,1.368,0,0,0,0-1.927L76.8,71.051a11.656,11.656,0,0,0,.5-1.194H82.07A1.357,1.357,0,0,0,83.427,68.5V63.071A1.357,1.357,0,0,0,82.07,61.714ZM61.74,21.461a6.855,6.855,0,0,0,.461-5.836,8.14,8.14,0,1,1,9.133,5.239,7.038,7.038,0,0,0-4.886,3.311l-4.438,7.681h-6.27Zm11.508,13.11,6.107,8.143H51.535l-6.107-8.143ZM42.13,4.714H43.3l3.135,5.225-1.968,1.954a1.4,1.4,0,0,0-.394.964V26.428H41.356V12.857a1.4,1.4,0,0,0-.394-.964L38.995,9.939ZM20.674,24.773a6.712,6.712,0,0,0-5.429-3.42,8.143,8.143,0,0,1-7.41-10.681l3.026,5.266a1.365,1.365,0,0,0,1.1.679l4.886.312a1.357,1.357,0,0,0,1.3-.76l2.171-4.384a1.41,1.41,0,0,0-.041-1.276L17.24,5.244a8.143,8.143,0,0,1,5.985,10.735,6.936,6.936,0,0,0,.448,5.849l5.795,10.029H24.758ZM6.071,42.714l6.107-8.143H40l-6.107,8.143ZM41.356,75.285h-28.5V45.428H34.571a1.376,1.376,0,0,0,1.086-.543l5.7-7.6ZM38.642,31.857V29.143h8.143v2.714Zm12.743,42.56a1.441,1.441,0,0,0-.38.869H44.07v-38l5.7,7.6a1.376,1.376,0,0,0,1.086.543H72.57v7.817l-1.52,1.52a11.655,11.655,0,0,0-1.194-.5V49.5A1.357,1.357,0,0,0,68.5,48.142H63.07A1.357,1.357,0,0,0,61.713,49.5v4.764a11.652,11.652,0,0,0-1.194.5l-3.366-3.379a1.368,1.368,0,0,0-1.927,0l-3.841,3.841a1.368,1.368,0,0,0,0,1.927l3.379,3.366a11.653,11.653,0,0,0-.5,1.194H49.5a1.357,1.357,0,0,0-1.357,1.357V68.5A1.357,1.357,0,0,0,49.5,69.857h4.764a11.651,11.651,0,0,0,.5,1.194Zm29.328-7.274H76.3a1.357,1.357,0,0,0-1.316,1.018,9.01,9.01,0,0,1-1.018,2.429,1.394,1.394,0,0,0,.2,1.669l3.135,3.121L75.38,77.307l-3.121-3.135a1.394,1.394,0,0,0-1.669-.2,9.01,9.01,0,0,1-2.429,1.018A1.357,1.357,0,0,0,67.142,76.3v4.411H64.427V76.3a1.357,1.357,0,0,0-1.018-1.316,9.01,9.01,0,0,1-2.429-1.018,1.394,1.394,0,0,0-1.669.2L56.19,77.307,54.263,75.38,57.4,72.259a1.394,1.394,0,0,0,.2-1.669,9.01,9.01,0,0,1-1.018-2.429,1.357,1.357,0,0,0-1.316-1.018H50.856V64.428h4.411a1.357,1.357,0,0,0,1.316-1.018A9.01,9.01,0,0,1,57.6,60.981a1.394,1.394,0,0,0-.2-1.669L54.263,56.19l1.927-1.927L59.311,57.4a1.394,1.394,0,0,0,1.669.2,9.01,9.01,0,0,1,2.429-1.018,1.357,1.357,0,0,0,1.018-1.316V50.857h2.714v4.411a1.357,1.357,0,0,0,1.018,1.316A9.01,9.01,0,0,1,70.589,57.6a1.394,1.394,0,0,0,1.669-.2l3.121-3.135,1.927,1.927-3.135,3.121a1.394,1.394,0,0,0-.2,1.669,9.009,9.009,0,0,1,1.018,2.429A1.357,1.357,0,0,0,76.3,64.428h4.411Z" transform="translate(-2.002 -2)" fill="#7e71b1"/>
    <path id="Path_14" data-name="Path 14" d="M50.786,44a6.786,6.786,0,1,0,6.786,6.786A6.786,6.786,0,0,0,50.786,44Zm0,10.857a4.071,4.071,0,1,1,4.071-4.071A4.071,4.071,0,0,1,50.786,54.857Z" transform="translate(12.997 13)" fill="#7e71b1"/>
    <path id="Path_15" data-name="Path 15" d="M14.714,49H13.357a1.357,1.357,0,1,0,0,2.714h1.357a1.357,1.357,0,1,0,0-2.714Z" transform="translate(1.569 14.785)" fill="#7e71b1"/>
    <path id="Path_16" data-name="Path 16" d="M14.714,52H13.357a1.357,1.357,0,1,0,0,2.714h1.357a1.357,1.357,0,1,0,0-2.714Z" transform="translate(1.569 15.857)" fill="#7e71b1"/>
    <path id="Path_17" data-name="Path 17" d="M25.5,49H17.357a1.357,1.357,0,0,0,0,2.714H25.5A1.357,1.357,0,0,0,25.5,49Z" transform="translate(2.998 14.785)" fill="#7e71b1"/>
    <path id="Path_18" data-name="Path 18" d="M14.714,46H13.357a1.357,1.357,0,1,0,0,2.714h1.357a1.357,1.357,0,1,0,0-2.714Z" transform="translate(1.569 13.714)" fill="#7e71b1"/>
    <path id="Path_19" data-name="Path 19" d="M25.5,46H17.357a1.357,1.357,0,1,0,0,2.714H25.5A1.357,1.357,0,0,0,25.5,46Z" transform="translate(2.998 13.714)" fill="#7e71b1"/>
    <path id="Path_20" data-name="Path 20" d="M25.5,52H17.357a1.357,1.357,0,0,0,0,2.714H25.5A1.357,1.357,0,0,0,25.5,52Z" transform="translate(2.998 15.857)" fill="#7e71b1"/>
  </g>
</svg>
