<svg xmlns="http://www.w3.org/2000/svg" version="1.0" width="479.000000pt" height="522.000000pt" viewBox="0 0 479.000000 522.000000" preserveAspectRatio="xMidYMid meet">

    <g transform="translate(0.000000,522.000000) scale(0.100000,-0.100000)" fill="#000000" stroke="none">
        <path d="M1529 4837 c-101 -34 -170 -121 -171 -216 -1 -90 16 -132 72 -185 56 -52 87 -58 176 -31 83 24 117 75 115 174 0 61 -6 93 -27 146 -6 18 -4 17 19 -4 15 -13 34 -45 44 -70 9 -25 25 -57 35 -70 9 -12 20 -39 23 -60 8 -45 19 -105 39 -201 17 -86 30 -356 17 -365 -9 -5 -8 -28 5 -112 11 -73 6 -75 -103 -22 -54 27 -102 52 -108 56 -40 33 -270 49 -354 26 -24 -7 -55 -13 -69 -13 -28 0 -201 -84 -267 -130 -99 -68 -190 -195 -257 -356 -32 -76 -33 -84 -31 -209 1 -130 15 -259 35 -325 23 -75 42 -127 66 -180 13 -30 35 -78 48 -107 58 -129 168 -277 410 -554 12 -13 78 -78 147 -144 70 -66 197 -189 284 -273 l158 -152 6 -133 c4 -72 3 -137 -2 -143 -13 -16 6 -184 31 -284 11 -47 28 -114 37 -150 27 -107 94 -238 151 -296 77 -79 171 -95 241 -43 25 18 31 32 37 78 13 104 9 213 -10 271 -30 87 -176 374 -223 436 -13 17 -23 35 -23 41 0 10 -73 103 -116 146 -57 58 -56 51 -55 567 2 425 3 476 18 485 9 6 48 38 87 72 163 141 226 294 242 588 5 106 -8 183 -55 305 -12 30 -21 63 -21 72 0 9 -8 23 -18 30 -9 7 -26 27 -36 43 -11 17 -52 62 -93 100 l-73 70 -10 315 c-13 410 -17 434 -93 587 -36 74 -79 143 -106 174 -46 50 -46 50 -116 54 -40 2 -86 -1 -106 -8z m151 -177 c14 -49 13 -62 -9 -112 -18 -42 -63 -94 -49 -57 16 42 30 141 27 188 -3 43 -2 49 9 34 7 -9 17 -33 22 -53z m-90 -811 c76 -19 152 -52 223 -97 l69 -43 -7 -157 c-3 -86 -8 -159 -11 -163 -2 -4 -7 -110 -10 -236 -6 -286 -10 -380 -19 -468 l-7 -71 -52 -21 c-83 -33 -181 -26 -281 21 -86 40 -128 79 -119 109 5 15 2 18 -13 13 -16 -5 -27 5 -54 46 -70 107 -84 151 -84 273 0 119 12 164 64 233 25 34 85 67 103 56 5 -3 15 1 21 9 20 26 84 37 138 26 48 -10 78 -33 126 -96 30 -39 41 -41 48 -10 9 33 -19 91 -68 141 -33 34 -53 46 -95 55 -113 24 -170 11 -275 -59 -155 -104 -184 -149 -197 -308 -11 -134 -6 -170 38 -272 56 -131 108 -212 191 -297 116 -119 181 -143 391 -143 l117 0 5 -77 c10 -145 2 -693 -10 -705 -8 -8 -9 -15 -1 -25 9 -10 8 -13 -1 -13 -17 0 -86 75 -170 185 -38 50 -77 99 -86 109 -9 11 -49 60 -88 111 -39 50 -116 148 -171 217 -158 199 -295 395 -368 528 -78 144 -119 355 -99 515 25 195 74 316 162 397 85 79 189 158 240 181 115 52 236 65 350 36z m421 -246 c84 -91 131 -181 156 -306 15 -73 14 -86 -2 -180 -29 -166 -92 -301 -185 -391 l-50 -49 0 204 c0 169 15 553 24 649 2 14 4 44 4 68 1 23 6 42 10 42 4 0 24 -17 43 -37z m-1107 -25 c-4 -7 -13 -20 -20 -28 -7 -8 -29 -60 -49 -115 -90 -245 -47 -541 119 -820 32 -55 67 -109 76 -120 10 -11 48 -65 85 -120 38 -55 88 -126 112 -158 54 -72 55 -86 2 -27 -143 161 -246 305 -325 458 -69 133 -99 211 -108 282 -4 30 -14 91 -23 135 -22 111 -13 213 31 336 39 111 51 135 79 167 23 24 32 29 21 10z m1310 -534 c-16 -84 -75 -228 -123 -297 -30 -45 -108 -124 -137 -140 -28 -16 -39 9 -13 30 47 37 139 126 139 134 0 5 15 33 34 62 35 55 85 207 94 287 4 38 6 41 13 23 5 -14 2 -53 -7 -99z m-380 -483 c7 -10 -17 -21 -42 -21 -15 1 -14 3 2 15 23 17 33 19 40 6z m-506 -477 c-4 -3 -12 5 -18 18 -12 22 -12 22 6 6 10 -10 15 -20 12 -24z m685 -840 c109 -148 128 -181 160 -282 52 -161 56 -288 12 -356 -21 -32 -38 -32 -92 -3 -63 34 -119 106 -132 169 -18 95 -40 300 -46 423 -4 66 -9 133 -12 149 -9 50 18 26 110 -100z m231 -641 c-9 -39 -32 -73 -49 -73 -20 0 -28 17 -12 27 8 4 22 23 31 41 20 39 39 42 30 5z" />
        <path d="M3145 3920 c-176 -11 -335 -66 -508 -175 -83 -51 -125 -87 -199 -168 -52 -56 -100 -112 -106 -124 -23 -42 -12 -47 26 -12 157 148 378 291 547 354 112 42 183 47 285 20 30 -8 63 -15 73 -15 27 0 144 -80 200 -135 132 -132 204 -317 200 -516 -1 -52 -7 -115 -13 -140 -6 -24 -15 -62 -20 -84 -23 -110 -76 -234 -166 -392 -142 -247 -207 -325 -577 -696 -125 -126 -227 -233 -227 -238 0 -5 -32 -53 -72 -107 -40 -53 -77 -110 -83 -127 -5 -16 -30 -68 -53 -114 -91 -175 -137 -309 -117 -341 10 -17 35 8 35 35 0 54 107 276 195 402 100 143 356 416 521 557 174 147 321 282 372 342 31 35 61 64 66 65 11 0 115 134 152 195 11 18 31 45 43 58 23 25 75 141 110 246 37 110 53 304 33 395 -33 153 -68 264 -94 302 -15 23 -28 46 -28 50 0 13 -87 132 -129 176 -86 92 -173 142 -306 177 -16 4 -37 10 -45 12 -8 3 -60 2 -115 -2z m445 -318 c25 -37 42 -72 36 -72 -4 0 -86 109 -86 115 0 14 29 -11 50 -43z m116 -282 c47 -172 21 -435 -62 -605 -24 -49 -85 -147 -90 -142 -2 2 15 44 39 93 68 140 94 220 108 333 11 102 7 229 -10 301 -29 117 -16 133 15 20z" />
        <path d="M4198 3608 c-38 -22 -48 -41 -48 -96 0 -54 15 -72 59 -72 87 0 134 100 76 163 -31 32 -39 33 -87 5z m79 -90 c-3 -7 -5 -2 -5 12 0 14 2 19 5 13 2 -7 2 -19 0 -25z" />
        <path d="M4251 3025 c-26 -30 -31 -44 -31 -85 0 -40 5 -56 28 -81 33 -37 61 -36 105 5 22 20 27 34 27 72 0 41 -5 51 -39 85 -21 22 -43 39 -49 39 -5 0 -24 -16 -41 -35z" />
        <path d="M3191 1730 c18 -31 20 -43 11 -52 -17 -17 -15 -33 3 -18 19 16 30 7 65 -53 40 -70 40 -118 1 -158 -36 -36 -67 -39 -57 -6 4 12 10 41 13 64 10 75 -45 123 -81 71 -24 -33 -19 -80 10 -124 46 -67 53 -134 14 -134 -21 0 -65 49 -88 97 -9 18 -19 33 -24 33 -12 0 -10 -6 11 -48 55 -110 62 -192 17 -192 -28 0 -45 19 -79 85 -18 35 -26 43 -27 29 0 -32 61 -117 92 -128 45 -16 61 7 55 77 -5 55 -4 58 12 43 40 -36 78 -2 68 60 -5 32 -4 34 22 34 48 0 99 77 86 128 -5 22 -3 24 19 18 51 -13 73 52 40 115 -21 42 -28 31 -8 -16 27 -65 4 -102 -47 -75 -29 16 -91 112 -79 124 15 15 12 30 -4 17 -12 -10 -18 -6 -32 18 -27 46 -39 37 -13 -9z m19 -169 c14 -28 13 -57 -6 -92 -12 -25 -18 -28 -29 -19 -22 18 -35 78 -25 106 11 29 45 32 60 5z" fill="#29573f" />
        <path d="M1220 1583 c-57 -30 -97 -77 -107 -126 -4 -21 -10 -26 -22 -22 -9 4 -44 9 -78 12 -107 10 -195 -42 -223 -130 -30 -94 47 -215 176 -274 57 -26 154 -42 154 -26 0 6 -23 13 -51 17 -197 26 -327 220 -224 334 52 58 142 77 225 49 26 -9 37 -20 44 -45 21 -73 126 -123 134 -64 4 29 -19 56 -76 90 -40 22 -43 28 -38 54 10 49 46 89 104 116 78 35 173 29 261 -18 128 -68 158 -159 72 -217 -67 -45 -171 -21 -210 49 -14 24 -14 28 3 47 22 25 63 27 111 7 29 -12 35 -13 35 -1 0 17 -52 35 -100 35 -41 0 -80 -32 -80 -67 0 -27 43 -79 81 -98 36 -19 122 -19 159 0 89 46 93 148 9 219 -66 56 -128 79 -219 84 -79 4 -89 2 -140 -25z m-32 -223 c43 -31 55 -60 26 -60 -18 0 -84 62 -84 79 0 18 14 13 58 -19z" fill="#29573f" />
        <path d="M2684 1316 c-113 -50 -190 -202 -164 -323 29 -127 139 -193 247 -148 19 8 39 15 43 15 5 0 16 -20 26 -45 17 -46 17 -46 -6 -63 -35 -25 -35 -25 -53 -52 -19 -27 -23 -75 -6 -85 37 -24 99 41 99 104 0 29 9 42 59 87 73 67 105 133 105 219 -1 108 -82 238 -178 285 -49 23 -126 26 -172 6z m174 -25 c46 -23 103 -84 134 -143 18 -34 23 -59 23 -123 0 -69 -4 -86 -27 -127 -24 -40 -101 -118 -117 -118 -7 0 -41 80 -41 95 0 5 14 24 32 42 18 18 27 33 22 33 -6 0 -21 -11 -34 -25 -13 -14 -27 -25 -30 -25 -9 0 -131 208 -159 270 -11 25 -21 59 -21 76 0 32 10 40 80 68 25 9 98 -2 138 -23z m-201 -141 c13 -30 52 -101 85 -158 69 -116 68 -123 -13 -142 -46 -11 -54 -10 -97 12 -36 19 -53 36 -74 77 -44 85 -37 172 23 266 31 49 32 50 41 25 6 -14 21 -50 35 -80z m203 -425 c0 -29 -28 -83 -49 -95 -49 -26 -55 23 -10 75 33 37 59 46 59 20z" fill="#29573f" />
        <path d="M1589 1236 c-202 -101 -298 -157 -323 -187 -31 -37 -32 -49 -5 -83 18 -23 28 -26 77 -26 l57 0 0 -44 c1 -51 28 -89 82 -112 57 -24 173 -13 173 17 0 7 -7 8 -17 4 -93 -36 -202 2 -218 76 -10 45 6 54 52 31 61 -32 105 -37 147 -17 57 27 62 78 10 111 -41 28 -110 22 -178 -15 -72 -38 -142 -43 -171 -11 -17 18 -17 21 -1 45 23 35 72 65 273 165 94 47 172 88 172 93 2 15 -27 5 -130 -47z m32 -255 c29 -23 19 -48 -26 -70 -24 -12 -35 -11 -81 3 -74 23 -85 40 -42 66 44 26 117 27 149 1z" fill="#29573f" />
    </g>
</svg>