<?xml version="1.0"?>
<svg xmlns="http://www.w3.org/2000/svg" viewBox="0 0 64 64" width="512" height="512"><g id="Package"><path d="M48.5,12.6l3,1.732a1,1,0,0,0,1,0l3-1.732a1,1,0,0,0,.5-.866V8.268a1,1,0,0,0-.5-.866l-3-1.732a1,1,0,0,0-1,0L48.5,7.4a1,1,0,0,0-.5.866v3.464A1,1,0,0,0,48.5,12.6ZM50,8.845l2-1.154,2,1.154v2.31l-2,1.154-2-1.154Z"/><path d="M61,46H57.49a8.586,8.586,0,0,0-.37-.88l2.49-2.48a1.008,1.008,0,0,0,0-1.42l-2.83-2.83a1.011,1.011,0,0,0-.78-.28V34h5a.977.977,0,0,0,.89-.55,1,1,0,0,0-.09-1.05l-6-8A1.014,1.014,0,0,0,55,24H48.53l2.7-4.66a3.156,3.156,0,0,1,2.22-1.48,7.9,7.9,0,0,0,5.6-4.08,8.074,8.074,0,0,0-2.9-10.61,7.991,7.991,0,0,0-11.67,9.55,3.068,3.068,0,0,1-.19,2.62l-5,8.66H37V21a1,1,0,0,0-1-1H35V10.41l1.71-1.7a1.014,1.014,0,0,0,.15-1.22l-3-5A.99.99,0,0,0,33,2H31a.99.99,0,0,0-.86.49l-3,5a1.014,1.014,0,0,0,.15,1.22L29,10.41V20H28a1,1,0,0,0-1,1v3H24.55l-4.84-8.39a3.071,3.071,0,0,1-.19-2.62,8,8,0,0,0-8.16-10.7,1.005,1.005,0,0,0-.79,1.5l2.9,5.02L12.4,10.96,10,10.81,7.11,5.79a.994.994,0,0,0-.83-.5.981.981,0,0,0-.86.43,7.995,7.995,0,0,0,6.26,12.54,2.908,2.908,0,0,1,2.34,1.52L16.46,24H9a1.014,1.014,0,0,0-.8.4l-6,8a1,1,0,0,0-.09,1.05A.977.977,0,0,0,3,34H8V57a1,1,0,0,0,1,1H39.62l1.6,1.61a1.008,1.008,0,0,0,1.42,0l2.48-2.49a8.586,8.586,0,0,0,.88.37V61a1,1,0,0,0,1,1h4a1,1,0,0,0,1-1V57.49a8.586,8.586,0,0,0,.88-.37l2.48,2.49a1.008,1.008,0,0,0,1.42,0l2.83-2.83a1.008,1.008,0,0,0,0-1.42l-2.49-2.48a8.586,8.586,0,0,0,.37-.88H61a1,1,0,0,0,1-1V47A1,1,0,0,0,61,46ZM46.02,16.34a5.051,5.051,0,0,0,.34-4.3,5.985,5.985,0,0,1,8.75-7.16,6.04,6.04,0,0,1,2.18,7.95,5.956,5.956,0,0,1-4.2,3.07,5.186,5.186,0,0,0-3.6,2.44L46.22,24H41.6ZM54.5,26,59,32H38.5L34,26ZM31.57,4h.86l2.31,3.85L33.29,9.29A1.033,1.033,0,0,0,33,10V20H31V10a1.033,1.033,0,0,0-.29-.71L29.26,7.85ZM15.76,18.78a4.946,4.946,0,0,0-4-2.52A6,6,0,0,1,6.3,8.39l2.23,3.88a1.006,1.006,0,0,0,.81.5l3.6.23a1,1,0,0,0,.96-.56l1.6-3.23a1.039,1.039,0,0,0-.03-.94L13.23,4.39a6,6,0,0,1,4.41,7.91,5.111,5.111,0,0,0,.33,4.31L22.24,24H18.77ZM5,32l4.5-6H30l-4.5,6ZM31,56H10V34H26a1.014,1.014,0,0,0,.8-.4L31,28ZM29,24V22h6v2Zm9.39,31.36a1.062,1.062,0,0,0-.28.64H33V28l4.2,5.6a1.014,1.014,0,0,0,.8.4H54v5.76l-1.12,1.12a8.586,8.586,0,0,0-.88-.37V37a1,1,0,0,0-1-1H47a1,1,0,0,0-1,1v3.51a8.586,8.586,0,0,0-.88.37l-2.48-2.49a1.008,1.008,0,0,0-1.42,0l-2.83,2.83a1.008,1.008,0,0,0,0,1.42l2.49,2.48a8.586,8.586,0,0,0-.37.88H37a1,1,0,0,0-1,1v4a1,1,0,0,0,1,1h3.51a8.586,8.586,0,0,0,.37.88ZM60,50H56.75a1,1,0,0,0-.97.75,6.639,6.639,0,0,1-.75,1.79,1.027,1.027,0,0,0,.15,1.23l2.31,2.3-1.42,1.42-2.3-2.31a1.027,1.027,0,0,0-1.23-.15,6.639,6.639,0,0,1-1.79.75,1,1,0,0,0-.75.97V60H48V56.75a1,1,0,0,0-.75-.97,6.639,6.639,0,0,1-1.79-.75,1.027,1.027,0,0,0-1.23.15l-2.3,2.31-1.42-1.42,2.31-2.3a1.027,1.027,0,0,0,.15-1.23,6.639,6.639,0,0,1-.75-1.79,1,1,0,0,0-.97-.75H38V48h3.25a1,1,0,0,0,.97-.75,6.639,6.639,0,0,1,.75-1.79,1.027,1.027,0,0,0-.15-1.23l-2.31-2.3,1.42-1.42,2.3,2.31a1.027,1.027,0,0,0,1.23.15,6.639,6.639,0,0,1,1.79-.75,1,1,0,0,0,.75-.97V38h2v3.25a1,1,0,0,0,.75.97,6.639,6.639,0,0,1,1.79.75,1.027,1.027,0,0,0,1.23-.15l2.3-2.31,1.42,1.42-2.31,2.3a1.027,1.027,0,0,0-.15,1.23,6.639,6.639,0,0,1,.75,1.79,1,1,0,0,0,.97.75H60Z"/><path d="M49,44a5,5,0,1,0,5,5A5.006,5.006,0,0,0,49,44Zm0,8a3,3,0,1,1,3-3A3,3,0,0,1,49,52Z"/><path d="M14,49H13a1,1,0,0,0,0,2h1a1,1,0,0,0,0-2Z"/><path d="M14,52H13a1,1,0,0,0,0,2h1a1,1,0,0,0,0-2Z"/><path d="M23,49H17a1,1,0,0,0,0,2h6a1,1,0,0,0,0-2Z"/><path d="M14,46H13a1,1,0,0,0,0,2h1a1,1,0,0,0,0-2Z"/><path d="M23,46H17a1,1,0,0,0,0,2h6a1,1,0,0,0,0-2Z"/><path d="M23,52H17a1,1,0,0,0,0,2h6a1,1,0,0,0,0-2Z"/></g></svg>
