<svg id="Layer_1" enable-background="new 0 0 512 512" height="512" viewBox="0 0 512 512" width="512" xmlns="http://www.w3.org/2000/svg">
    <style>
        path {
            fill: #8275b3;
        }
    </style>
    <g>
        <g>
            <path d="m502 326h-492c-13.268.528-13.258 19.477 0 20h49.399c34.613 85.756 98.113 139.962 194.014 165.659 1.696.454 3.481.454 5.177 0 95.905-25.698 159.407-79.905 194.019-165.659h49.391c13.268-.529 13.258-19.476 0-20zm-115.384 20c-2.67 5.102-5.482 10.015-8.411 14.689-26.8 42.774-66.792 71.997-122.206 89.271-55.413-17.274-95.406-46.497-122.206-89.271-2.929-4.674-5.741-9.586-8.411-14.688h261.234zm-130.616 145.638c-85.129-23.453-142.478-71.172-174.915-145.638h21.961c4.216 8.907 8.852 17.408 13.801 25.307 29.945 47.795 74.519 80.075 136.268 98.687 1.882.567 3.889.567 5.771 0 61.75-18.611 106.324-50.892 136.269-98.686 4.949-7.9 9.584-16.401 13.8-25.308h21.969c-32.438 74.465-89.79 122.184-174.924 145.638z" />
            <path d="m10 186h492c13.268-.529 13.258-19.476 0-20h-16.809c.543-14.43.807-29.557.807-46 0-5.523-4.478-10-10-10-55.139 0-99.998-44.86-99.998-100 0-5.523-4.478-10-10-10h-220c-5.523 0-10 4.477-10 10 0 55.14-44.859 100-99.999 100-5.523 0-10 4.477-10 10 0 16.464.264 31.591.805 46h-16.806c-13.269.528-13.258 19.477 0 20zm36.033-56.416c58.196-4.836 104.729-51.385 109.554-109.584h200.825c4.825 58.199 51.358 104.748 109.555 109.584-.086 12.822-.347 24.85-.791 36.416h-19.974c.141-3.695.263-7.455.365-11.245.124-4.585-2.888-8.667-7.306-9.901-46.988-13.125-84.244-50.491-97.228-97.516-1.197-4.335-5.142-7.338-9.64-7.338h-30.397c-13.268.529-13.258 19.476 0 20h22.979c15.737 47.786 53.653 85.863 101.366 101.806-.049 1.407-.1 2.805-.154 4.194h-338.375c-.054-1.389-.105-2.787-.154-4.194 47.712-15.943 85.629-54.02 101.367-101.806h22.972c13.268-.528 13.258-19.477 0-20h-30.391c-4.498 0-8.442 3.003-9.639 7.338-12.984 47.025-50.24 84.392-97.228 97.516-4.417 1.234-7.429 5.314-7.306 9.899.101 3.789.223 7.55.364 11.246h-19.977c-.442-11.552-.702-23.579-.787-36.415z" />
            <path d="m256 60c13.267-.528 13.257-19.477 0-20h-.007c-13.268.53-13.25 19.478.007 20z" />
            <path d="m162.06 306c5.523 0 10-4.477 10-10v-21.715c11.64-4.127 20-15.249 20-28.286v-29.999c-.528-13.268-19.477-13.258-20 0v29.999c-.551 13.27-19.455 13.259-20 0v-29.999c-.528-13.268-19.477-13.258-20 0v29.999c0 13.037 8.36 24.159 20 28.286v21.715c0 5.523 4.477 10 10 10z" />
            <path d="m252.061 226c13.269-.528 13.259-19.477 0-20h-35c-5.523 0-10 4.477-10 10v80c0 5.523 4.477 10 10 10h35c13.269-.528 13.259-19.477 0-20h-25v-20h11c13.268-.528 13.258-19.477 0-20h-11v-20z" />
            <path d="m325.062 306c5.522 0 10-4.477 10-10v-60c-1.653-39.809-58.362-39.778-60 0v60c.528 13.268 19.476 13.258 20 0v-20.001h20v20.001c0 5.523 4.478 10 10 10zm-30-50.001v-19.999c.551-13.27 19.454-13.259 20 0v19.999z" />
            <path d="m410.064 236c0-16.542-13.458-30-30.001-30h-20c-5.522 0-10 4.477-10 10v80c.528 13.268 19.476 13.258 20 0v-30h3.82l17.237 34.472c2.479 4.99 8.583 6.92 13.417 4.472 4.939-2.47 6.941-8.477 4.472-13.417l-14.595-29.188c9.317-5.096 15.65-14.992 15.65-26.339zm-40.001-10h10c13.197.54 13.295 19.304.125 19.998-.115-.002-.229-.001-.344.002h-9.78v-20z" />
            <path d="m453.985 285.251c-2.396.991-5.016 1-7.378.022l-5.316-2.202c-5.104-2.112-10.951.31-13.066 5.412-2.113 5.102.31 10.952 5.412 13.065l5.317 2.203c14.573 6.388 32.963-1.242 38.74-16.048 6.256-15.104-.942-32.482-16.047-38.74l-10.634-4.404c-4.79-1.864-7.291-7.905-5.222-12.61.978-2.361 2.835-4.208 5.23-5.2 2.397-.991 5.018-.999 7.378-.021l5.317 2.202c5.101 2.113 10.952-.309 13.065-5.413 2.113-5.103-.311-10.952-5.413-13.065l-5.317-2.202c-7.298-3.022-15.354-3.015-22.684.022-7.332 3.037-13.034 8.729-16.055 16.024-3.023 7.297-3.016 15.354.021 22.685s8.728 13.033 16.025 16.056l10.634 4.404c4.916 2.036 7.259 7.693 5.222 12.61-.976 2.361-2.834 4.208-5.229 5.2z" />
            <path d="m62.057 206h-20c-13.268.528-13.258 19.477 0 20h20c13.272.553 13.258 19.454 0 20.001-5.523 0-10 4.477-10 10s4.477 10 10 10c13.263.546 13.265 19.453 0 20h-20c-13.268.528-13.258 19.477 0 20h20c25.837.09 39.542-31.085 22.342-50 17.207-18.924 3.483-50.095-22.342-50.001z" />
        </g>
    </g>
</svg>