<svg xmlns="http://www.w3.org/2000/svg" width="56.334" height="39" viewBox="0 0 56.334 39">
  <g id="Icon_ionic-ios-mail" data-name="Icon ionic-ios-mail" transform="translate(-3.375 -7.875)">
    <path id="Path_69" data-name="Path 69" d="M59.248,10.4,44.677,25.239a.262.262,0,0,0,0,.379l10.2,10.86a1.757,1.757,0,0,1,0,2.492,1.765,1.765,0,0,1-2.492,0L42.226,28.15a.278.278,0,0,0-.393,0l-2.478,2.519a10.9,10.9,0,0,1-7.773,3.277,11.122,11.122,0,0,1-7.935-3.372L21.264,28.15a.278.278,0,0,0-.393,0L10.715,38.97a1.765,1.765,0,0,1-2.492,0,1.757,1.757,0,0,1,0-2.492l10.2-10.86a.288.288,0,0,0,0-.379L3.835,10.4a.267.267,0,0,0-.46.19v29.7a4.346,4.346,0,0,0,4.333,4.333H55.375a4.346,4.346,0,0,0,4.333-4.333v-29.7A.271.271,0,0,0,59.248,10.4Z" transform="translate(0 2.258)" fill="#7e71b1"/>
    <path id="Path_70" data-name="Path 70" d="M30.754,32.67a7.362,7.362,0,0,0,5.295-2.221L57.3,8.823a4.256,4.256,0,0,0-2.681-.948H6.907a4.228,4.228,0,0,0-2.681.948L25.473,30.449A7.363,7.363,0,0,0,30.754,32.67Z" transform="translate(0.788 0)" fill="#7e71b1"/>
  </g>
</svg>
