<svg xmlns="http://www.w3.org/2000/svg" width="45.04" height="45.036" viewBox="0 0 45.04 45.036">
  <path id="Icon_ionic-ios-call" data-name="Icon ionic-ios-call" d="M48.229,39.767a37.83,37.83,0,0,0-7.9-5.288c-2.368-1.137-3.236-1.114-4.913.094-1.4,1.008-2.3,1.946-3.9,1.595s-4.772-2.744-7.844-5.8-5.464-6.238-5.8-7.844.6-2.509,1.595-3.9c1.208-1.677,1.243-2.544.094-4.913a37.083,37.083,0,0,0-5.288-7.9c-1.724-1.724-2.11-1.348-3.06-1.008A17.414,17.414,0,0,0,8.4,6.281,8.453,8.453,0,0,0,5.034,9.833c-.668,1.442-1.442,4.127,2.5,11.139A62.153,62.153,0,0,0,18.459,35.546h0l.012.012.012.012h0A62.4,62.4,0,0,0,33.057,46.5c7.012,3.94,9.7,3.166,11.139,2.5a8.309,8.309,0,0,0,3.553-3.365,17.414,17.414,0,0,0,1.489-2.8C49.577,41.877,49.964,41.491,48.229,39.767Z" transform="translate(-4.49 -4.503)" fill="#7e71b1"/>
</svg>
