<svg xmlns="http://www.w3.org/2000/svg" width="22.589" height="20.976" viewBox="0 0 22.589 20.976">
  <path id="Icon_ionic-ios-star-outline" data-name="Icon ionic-ios-star-outline" d="M23.982,10.636H16.565L14.311,3.909a.817.817,0,0,0-1.533,0l-2.254,6.726H3.057a.809.809,0,0,0-.807.807.593.593,0,0,0,.015.136.775.775,0,0,0,.338.57l6.1,4.3-2.34,6.8a.809.809,0,0,0,.277.908.78.78,0,0,0,.454.2.988.988,0,0,0,.5-.182l5.95-4.241,5.95,4.241a.945.945,0,0,0,.5.182.724.724,0,0,0,.449-.2.8.8,0,0,0,.277-.908l-2.34-6.8,6.046-4.336.146-.126a.846.846,0,0,0,.262-.54A.854.854,0,0,0,23.982,10.636ZM17.568,15.3a1.416,1.416,0,0,0-.514,1.6l1.518,4.422a.2.2,0,0,1-.308.232l-3.9-2.783a1.409,1.409,0,0,0-.822-.262,1.383,1.383,0,0,0-.817.262l-3.9,2.778a.2.2,0,0,1-.308-.232L10.03,16.9a1.421,1.421,0,0,0-.519-1.614L5.427,12.406a.2.2,0,0,1,.116-.368h4.977a1.41,1.41,0,0,0,1.336-.963l1.493-4.447a.2.2,0,0,1,.383,0l1.493,4.447a1.41,1.41,0,0,0,1.336.963h4.906a.2.2,0,0,1,.116.363Z" transform="translate(-2.25 -3.375)" fill="#e4e4e4"/>
</svg>
