<svg xmlns="http://www.w3.org/2000/svg" width="90.021" height="87.148" viewBox="0 0 90.021 87.148">
  <g id="_001-conversation" data-name="001-conversation" transform="translate(0)">
    <path id="Path_11" data-name="Path 11" d="M4.814,61.953a5.8,5.8,0,0,0,11.239-1.989V56.74a6.643,6.643,0,0,1-3.13-.508,10.788,10.788,0,0,1-.269,1.067,6.936,6.936,0,0,1-2.2,3.454,6.43,6.43,0,0,1-4.54,1.316,9.887,9.887,0,0,1-1.1-.114Zm34.16-8.637H50.567V49.673H41.641a2.68,2.68,0,0,0-2.666,2.667Zm11.592,2.636H38.975v4.012a5.8,5.8,0,0,0,11.592,0V55.953Zm36.134,8.8a6.279,6.279,0,0,1,1.844,1.485,6.177,6.177,0,0,1,1.475,4.007v8.891a1.318,1.318,0,0,1-2.636,0V70.246a3.561,3.561,0,0,0-.847-2.307,3.622,3.622,0,0,0-1.824-1.156,8.391,8.391,0,0,1-10.038-.1,2.518,2.518,0,0,0-.777.219,2.412,2.412,0,0,0-.9.732l-7.082,9.38a1.324,1.324,0,0,1-1.051.528H55.791a2.43,2.43,0,1,0,0,4.859h10.84a2.369,2.369,0,0,0,1.182-.254A7.81,7.81,0,0,0,69.821,79.9l4.69-6.2a1.315,1.315,0,1,1,2.1,1.585l-4.461,5.911V92.679H87.384V85.108a1.318,1.318,0,0,1,2.636,0V94A1.314,1.314,0,0,1,88.7,95.315H1.321A1.319,1.319,0,0,1,0,94V85.108a1.318,1.318,0,0,1,2.636,0v7.571H17.877V81.186l-4.466-5.911a1.317,1.317,0,0,1,2.1-1.585l4.585,6.07q.628.83,1.256,1.67a2.426,2.426,0,0,0,.857.713,2.306,2.306,0,0,0,1.1.254h10.92a2.43,2.43,0,1,0,0-4.859H25.154A1.316,1.316,0,0,1,24.1,77.01l-7.082-9.38a2.438,2.438,0,0,0-1.675-.952,8.4,8.4,0,0,1-10.038.11,3.614,3.614,0,0,0-1.8,1.126,3.57,3.57,0,0,0-.867,2.332v8.891a1.318,1.318,0,0,1-2.636,0V70.247a6.2,6.2,0,0,1,1.515-4.052,6.347,6.347,0,0,1,1.809-1.44,8.363,8.363,0,0,1-1.5-4.79V52.34a5.309,5.309,0,0,1,5.3-5.3h6.265a5.309,5.309,0,0,1,5.3,5.3v7.625a8.377,8.377,0,0,1-1.366,4.59,5.1,5.1,0,0,1,1.8,1.49L25.807,74.9h5.278V69.549a5.5,5.5,0,0,1,2.1-4.047,13.859,13.859,0,0,1,3.8-2.3,8.372,8.372,0,0,1-.648-3.24V52.339a5.309,5.309,0,0,1,5.3-5.3H51.888a1.323,1.323,0,0,1,1.321,1.321V59.965a8.435,8.435,0,0,1-.583,3.075A14.351,14.351,0,0,1,56.7,65.382a5.587,5.587,0,0,1,2.233,4.167V74.9h5.278L70.9,66.045a5.048,5.048,0,0,1,1.8-1.485,8.37,8.37,0,0,1-1.371-4.6V52.339a5.309,5.309,0,0,1,5.3-5.3H82.9a5.309,5.309,0,0,1,5.3,5.3v7.625a8.4,8.4,0,0,1-1.5,4.79Zm-1.5-2.8a9.765,9.765,0,0,1-1.1.114,6.427,6.427,0,0,1-4.535-1.316A6.91,6.91,0,0,1,77.366,57.3a10.772,10.772,0,0,1-.264-1.067,6.668,6.668,0,0,1-3.135.508v3.225a5.8,5.8,0,0,0,11.239,1.989ZM73.967,54.1a4.3,4.3,0,0,0,3.274-.972,1.333,1.333,0,0,1,.857-.369,1.312,1.312,0,0,1,1.375,1.251,10.5,10.5,0,0,0,.409,2.517A4.366,4.366,0,0,0,81.219,58.7a3.954,3.954,0,0,0,2.766.738,9.492,9.492,0,0,0,1.58-.229V52.339A2.689,2.689,0,0,0,82.9,49.673H76.633a2.689,2.689,0,0,0-2.666,2.667Zm-57.914,0V52.339a2.68,2.68,0,0,0-2.666-2.667H7.122a2.68,2.68,0,0,0-2.661,2.667v6.873a9.385,9.385,0,0,0,1.575.229A3.954,3.954,0,0,0,8.8,58.7a4.409,4.409,0,0,0,1.341-2.178,10.255,10.255,0,0,0,.4-2.517,1.319,1.319,0,0,1,2.223-.892,4.3,4.3,0,0,0,3.285.982ZM38.4,65.472a11.452,11.452,0,0,0-3.459,1.989,3.009,3.009,0,0,0-1.216,2.088V74.9h.513a5.067,5.067,0,0,1,4.446,7.5H51.34a5.073,5.073,0,0,1,4.451-7.5H56.3V69.549a3.106,3.106,0,0,0-1.306-2.168,12.26,12.26,0,0,0-3.728-2.048c-.169.2-.349.4-.533.588a8.4,8.4,0,0,1-11.916,0q-.217-.217-.419-.449ZM10.99,17.93a1.318,1.318,0,0,1,0-2.636H35.4a1.318,1.318,0,0,1,0,2.636Zm0,13.875a1.321,1.321,0,0,1,0-2.642H23.2a1.321,1.321,0,1,1,0,2.642Zm0-6.938a1.318,1.318,0,0,1,0-2.636H35.4a1.318,1.318,0,0,1,0,2.636Zm25.762,14.06a3.645,3.645,0,0,0,.852,1.346,3.685,3.685,0,0,0,2.626,1.091h7.75a1.318,1.318,0,0,1,0,2.636h-7.75a6.3,6.3,0,0,1-4.491-1.874,6.409,6.409,0,0,1-1.724-3.2H15.63L9.659,44.9A1.322,1.322,0,0,1,7.4,43.971V38.818A8.023,8.023,0,0,1,.728,30.933V16.161A8.015,8.015,0,0,1,8.722,8.167H37.669a8.015,8.015,0,0,1,7.994,7.994V18.6h22.4a6.364,6.364,0,0,1,6.35,6.35v12.7a6.367,6.367,0,0,1-5.034,6.21v5.183a1.316,1.316,0,0,1-2.248.932L61.154,44h-7.2a1.318,1.318,0,1,1,0-2.636H61.7a1.3,1.3,0,0,1,.937.394l4.1,4.1V42.686a1.32,1.32,0,0,1,1.321-1.321,3.727,3.727,0,0,0,3.713-3.713v-12.7a3.727,3.727,0,0,0-3.713-3.713h-22.4v9.694a8.015,8.015,0,0,1-7.994,7.994h-.917Zm-21.67-2.636H37.669a5.377,5.377,0,0,0,5.358-5.358V16.161A5.377,5.377,0,0,0,37.669,10.8H8.722a5.378,5.378,0,0,0-5.358,5.358V30.933a5.377,5.377,0,0,0,5.358,5.358,1.319,1.319,0,0,1,1.316,1.321v3.175l4.112-4.107a1.309,1.309,0,0,1,.932-.389Zm54.43,48.743h-49v7.645h49V85.034Z" transform="translate(0 -8.167)" fill="#7e71b1"/>
  </g>
</svg>
